<?xml version="1.0" standalone="no"?>
<!DOCTYPE svg PUBLIC "-//W3C//DTD SVG 20010904//EN"
 "http://www.w3.org/TR/2001/REC-SVG-20010904/DTD/svg10.dtd">
<svg version="1.0" xmlns="http://www.w3.org/2000/svg"
 width="2560.000000pt" height="2560.000000pt" viewBox="0 0 2560.000000 2560.000000"
 preserveAspectRatio="xMidYMid meet">
<metadata>
Created by potrace 1.14, written by Peter Selinger 2001-2017
</metadata>
<g transform="translate(0.000000,2560.000000) scale(0.100000,-0.100000)"
fill="#000000" stroke="none">
<path d="M14756 25533 c-4 -38 -17 -178 -31 -313 -29 -276 -40 -391 -55 -565
-6 -66 -24 -219 -40 -340 -17 -121 -50 -393 -75 -605 -25 -212 -55 -446 -66
-520 -11 -74 -30 -220 -43 -323 -12 -103 -27 -191 -32 -196 -5 -4 -38 -18 -74
-31 -93 -32 -252 -113 -348 -177 -122 -81 -206 -202 -253 -365 -30 -104 -37
-311 -15 -437 25 -145 54 -190 213 -333 73 -66 133 -123 133 -127 0 -4 -28
-33 -61 -66 -34 -33 -140 -152 -237 -265 -210 -245 -406 -445 -445 -455 -22
-6 -39 0 -85 30 -117 78 -341 331 -432 490 -71 123 -117 181 -232 289 -105 99
-138 122 -162 113 -21 -8 -21 -65 -1 -302 8 -99 20 -317 25 -485 6 -168 17
-370 25 -450 20 -203 20 -260 -2 -260 -10 0 -99 43 -198 96 -183 97 -321 161
-500 232 -55 22 -179 74 -275 115 -96 41 -213 87 -260 102 -143 45 -461 117
-730 165 -30 5 -149 28 -265 49 -115 22 -273 50 -350 61 -77 12 -250 41 -385
66 -135 24 -276 48 -315 53 -212 28 -311 40 -415 51 -63 6 -245 29 -405 51
-159 22 -324 44 -365 50 -41 5 -129 17 -195 25 -66 9 -137 18 -157 21 -21 3
-38 1 -38 -3 0 -39 214 -265 460 -486 135 -121 369 -369 370 -390 0 -5 -17 -8
-38 -8 -57 0 -439 -103 -722 -195 -74 -24 -191 -60 -260 -79 -69 -19 -267 -84
-440 -144 -173 -60 -360 -123 -415 -140 -55 -17 -208 -76 -340 -130 -132 -55
-280 -114 -330 -132 -145 -53 -448 -185 -610 -267 -82 -42 -188 -94 -235 -116
-196 -94 -810 -407 -870 -444 -36 -22 -137 -79 -225 -128 -186 -103 -283 -164
-415 -262 -52 -38 -155 -109 -227 -157 -136 -89 -243 -178 -243 -201 0 -10 31
-15 118 -20 64 -3 252 -17 416 -31 165 -13 341 -24 392 -24 57 0 95 -4 100
-11 4 -6 -26 -42 -69 -83 -121 -114 -607 -670 -865 -990 -53 -66 -190 -232
-304 -370 -226 -271 -266 -326 -353 -486 -62 -113 -116 -193 -208 -310 -92
-115 -286 -413 -379 -580 -20 -36 -84 -144 -143 -240 -258 -421 -475 -911
-463 -1044 l3 -33 95 35 c549 199 902 342 1122 453 69 35 72 35 64 6 -22 -76
-40 -188 -61 -377 -14 -118 -29 -255 -35 -305 -6 -49 -24 -187 -41 -305 -70
-497 -79 -591 -90 -1045 -12 -467 -6 -1423 11 -1708 6 -94 20 -248 30 -342 44
-379 70 -811 70 -1155 0 -129 4 -241 9 -248 5 -9 15 6 30 45 29 76 131 227
225 333 42 47 121 141 177 210 118 145 179 210 194 210 14 0 23 -20 80 -165
23 -60 85 -195 137 -300 53 -104 117 -237 143 -295 26 -58 92 -197 146 -310
54 -113 123 -268 154 -345 31 -76 83 -189 115 -250 88 -166 192 -410 291 -688
72 -201 233 -605 267 -674 42 -82 53 -90 87 -60 26 22 28 31 41 168 13 142 19
187 69 529 41 281 135 784 161 859 3 10 19 -1 49 -36 25 -28 68 -68 95 -88 60
-44 76 -71 184 -303 46 -99 131 -259 189 -354 131 -217 221 -389 282 -540 26
-64 58 -127 72 -140 l25 -23 28 31 c34 39 41 68 134 606 12 70 24 130 28 133
11 11 104 -43 136 -80 46 -52 76 -116 201 -430 184 -460 244 -567 421 -745
184 -185 284 -255 490 -343 266 -115 461 -163 735 -182 94 -7 482 22 665 49
52 8 98 12 101 8 3 -4 18 -79 33 -167 34 -196 84 -415 136 -600 21 -77 58
-210 80 -295 138 -515 390 -912 660 -1039 40 -18 76 -27 131 -29 67 -4 83 -1
141 26 77 35 190 137 272 246 108 144 124 192 251 731 69 290 194 631 347 945
79 162 163 358 228 534 19 49 44 101 57 116 17 21 93 56 318 145 172 68 373
157 482 212 104 53 332 168 508 257 176 89 385 202 465 252 80 50 204 127 275
171 119 73 170 106 380 241 39 25 131 89 205 142 136 97 448 318 507 358 17
12 35 22 40 22 4 0 21 -84 36 -188 15 -103 49 -288 77 -412 27 -124 63 -290
80 -370 132 -617 198 -840 338 -1150 85 -188 126 -258 203 -347 32 -37 91
-106 131 -153 159 -185 407 -434 466 -467 161 -90 348 -78 453 30 39 40 205
327 259 446 18 41 42 106 52 145 22 83 68 528 68 666 1 166 17 279 68 490 28
113 60 250 73 305 12 55 37 138 55 185 17 47 37 118 44 159 12 72 42 124 60
105 5 -5 21 -56 35 -114 53 -211 105 -307 291 -540 181 -226 316 -347 552
-493 139 -86 146 -94 134 -144 -15 -57 -24 -341 -14 -397 11 -55 15 -58 97
-86 75 -25 190 -40 317 -41 61 0 100 -5 106 -12 5 -7 33 -125 61 -263 28 -138
65 -298 82 -355 60 -203 144 -339 210 -339 52 0 151 115 344 400 129 190 240
334 337 437 47 50 73 91 127 205 83 173 112 256 112 317 0 25 -18 118 -41 206
-66 256 -86 456 -120 1195 -17 374 -10 1517 10 1505 3 -2 64 -101 135 -220 72
-119 185 -289 252 -378 123 -165 239 -285 828 -857 222 -215 300 -268 670
-452 210 -104 188 -75 250 -331 55 -222 108 -374 185 -527 43 -85 50 -90 133
-90 107 0 381 39 535 77 16 4 22 1 22 -12 0 -10 13 -56 29 -104 17 -47 51
-169 76 -271 38 -151 59 -212 114 -330 37 -80 87 -191 112 -247 24 -57 49
-103 55 -103 6 0 35 26 63 58 49 53 127 135 289 304 63 65 64 68 101 195 21
71 75 236 120 368 86 253 106 321 147 505 13 63 43 192 65 285 121 520 137
615 115 670 -37 87 -316 497 -392 575 -54 55 -84 120 -84 182 0 41 -32 131
-98 273 -157 340 -278 656 -457 1200 -62 187 -106 382 -140 616 -8 59 -24 158
-35 220 -59 327 -95 761 -89 1049 l4 155 57 106 c32 58 78 164 102 236 25 72
65 175 89 230 24 54 50 123 58 152 12 49 12 56 -7 90 -231 412 -249 441 -529
849 -233 339 -284 410 -394 537 -218 255 -645 718 -888 965 -94 96 -182 189
-194 205 -66 87 -153 175 -329 334 -200 181 -294 257 -435 351 -93 62 -138 98
-301 235 -165 140 -299 247 -434 346 -298 221 -351 260 -440 319 -104 69 -591
432 -609 454 -6 8 -18 49 -26 92 -20 101 -40 163 -81 245 -44 89 -427 658
-535 796 -105 134 -233 314 -320 453 -156 247 -264 407 -379 565 -130 178
-303 434 -385 570 -75 124 -410 625 -515 770 -52 72 -147 185 -213 253 -111
116 -122 131 -177 245 -32 67 -97 189 -144 272 -48 82 -86 152 -86 155 0 3 23
35 52 71 146 179 220 394 219 634 0 132 -23 273 -68 415 -24 78 -32 90 -93
150 -36 36 -107 94 -158 129 -87 61 -92 67 -92 100 0 42 36 354 49 426 21 115
180 1383 206 1645 9 85 25 232 36 325 17 147 48 495 49 548 0 14 -9 17 -50 17
-58 0 -52 16 -74 -190 -9 -80 -27 -228 -40 -330 -14 -102 -32 -270 -41 -375
-9 -104 -29 -282 -45 -395 -36 -248 -55 -415 -75 -660 -21 -242 -39 -400 -75
-650 -16 -113 -36 -277 -45 -365 -25 -269 -87 -720 -106 -782 -11 -35 -75 -97
-132 -128 l-35 -18 -54 27 c-70 35 -113 76 -128 122 -15 44 -11 88 35 434 19
140 43 334 55 430 11 96 29 229 40 295 41 262 116 883 145 1205 29 331 65 666
105 975 22 171 43 331 46 358 l6 47 -60 0 -60 0 -6 -67z m-396 -3705 c28 -74
77 -147 116 -174 18 -11 57 -29 88 -38 55 -17 58 -17 125 3 39 12 83 33 100
47 17 14 31 21 31 16 0 -5 -7 -15 -16 -23 -8 -7 -24 -29 -34 -48 -26 -51 -67
-89 -108 -100 -97 -27 -360 128 -377 223 -4 18 0 81 9 140 9 59 16 112 17 119
0 7 7 -15 14 -48 7 -33 23 -86 35 -117z m410 -1231 c175 -214 203 -253 249
-343 24 -47 75 -143 114 -213 104 -187 180 -350 232 -496 50 -139 121 -293
181 -390 74 -121 79 -131 62 -117 -20 16 -42 6 -34 -14 3 -8 4 -14 2 -14 -10
0 -134 55 -199 88 -180 93 -322 140 -877 292 -387 106 -568 158 -591 171 -10
5 -24 21 -32 36 -7 16 -64 106 -125 201 -93 144 -110 176 -102 195 12 32 96
153 169 246 76 98 108 125 316 267 264 182 317 217 390 256 l70 38 35 -38 c19
-21 82 -95 140 -165z m864 -1592 c3 -8 1 -15 -4 -15 -6 0 -10 7 -10 15 0 8 2
15 4 15 2 0 6 -7 10 -15z m549 -159 c6 6 62 -82 82 -130 21 -49 8 -66 -28 -40
-21 16 -107 158 -107 177 0 4 11 2 24 -3 13 -5 26 -7 29 -4z m174 -273 c35
-44 111 -163 100 -157 -6 5 3 -7 21 -25 17 -18 32 -41 32 -52 0 -11 4 -18 9
-15 17 11 181 -229 181 -264 0 -39 -31 -14 -83 68 -15 23 -32 42 -37 42 -20 0
-9 -39 18 -62 31 -27 43 -72 17 -66 -27 5 -80 115 -73 151 3 15 1 27 -3 27 -5
0 -9 -7 -9 -16 0 -8 -4 -12 -10 -9 -18 11 -11 35 11 35 20 0 20 1 2 31 -27 47
-46 53 -76 25 -16 -15 -34 -22 -46 -19 -18 5 -18 3 -5 -44 37 -122 77 -250 85
-268 5 -11 24 -63 43 -115 34 -98 74 -190 81 -190 2 0 2 15 -1 33 -14 81 -15
127 -4 127 6 0 13 -8 16 -17 4 -10 15 -38 26 -63 12 -25 29 -65 39 -89 11 -24
29 -56 40 -72 26 -36 79 -199 79 -242 0 -18 20 -74 45 -125 25 -51 45 -97 45
-103 0 -6 6 -23 14 -37 18 -33 66 -139 66 -145 0 -7 61 -76 88 -100 12 -12 22
-26 22 -33 0 -6 7 -17 15 -24 8 -7 15 -22 15 -34 0 -23 84 -146 99 -146 6 0
22 -5 38 -12 15 -6 31 -11 35 -10 3 1 12 -5 18 -13 7 -8 24 -15 38 -15 23 0
24 3 19 36 -3 20 -14 45 -23 55 -9 10 -13 23 -9 29 11 18 -14 88 -49 140 -17
25 -41 65 -54 90 -30 59 -64 114 -85 138 -9 10 -17 25 -17 33 0 9 -11 37 -24
65 -13 27 -33 69 -45 94 -37 76 -76 145 -99 174 -12 16 -24 44 -28 65 -4 20
-20 53 -37 74 -30 38 -30 38 -12 71 18 33 18 33 -13 77 -16 24 -40 54 -51 66
-12 12 -20 26 -19 30 1 4 -4 18 -11 31 -15 28 -22 140 -10 148 5 3 9 0 9 -5 0
-6 6 -11 14 -11 18 0 109 -105 166 -190 24 -36 64 -92 90 -125 49 -62 183
-268 237 -365 114 -204 489 -859 522 -913 70 -115 109 -201 146 -324 20 -65
52 -149 71 -187 60 -117 223 -425 292 -550 77 -141 290 -577 357 -731 99 -229
201 -512 275 -762 21 -73 53 -165 69 -205 19 -44 24 -64 13 -51 -17 23 -17 22
-15 -23 0 -25 3 -46 5 -47 1 -1 22 -12 45 -23 l41 -21 5 21 c6 26 1 246 -8
346 -12 129 -74 458 -115 610 -99 363 -272 814 -394 1029 -32 56 -57 104 -54
106 2 2 24 -9 48 -24 25 -16 129 -81 231 -144 217 -135 594 -406 979 -706 419
-325 466 -367 860 -761 421 -420 567 -581 717 -788 54 -75 147 -201 206 -282
80 -107 126 -182 177 -285 68 -140 180 -411 248 -600 33 -93 34 -102 23 -145
-43 -159 -255 -611 -365 -778 -93 -141 -207 -273 -411 -478 -194 -196 -220
-216 -470 -354 -384 -213 -426 -229 -795 -300 -63 -12 -225 -44 -360 -71 -224
-44 -401 -74 -755 -129 -181 -28 -248 -38 -340 -50 -119 -15 -510 -30 -585
-22 l-65 7 60 37 c93 57 353 181 499 239 163 64 273 119 435 216 69 42 169 95
221 119 105 48 124 70 61 72 -51 2 -165 -31 -371 -108 -358 -134 -630 -223
-855 -279 -193 -48 -562 -116 -670 -123 l-40 -3 1 45 c2 116 27 365 45 453 11
54 47 183 80 287 88 280 199 698 199 748 0 36 -5 48 -26 64 -20 16 -23 23 -12
29 8 5 16 3 21 -6 4 -8 14 -12 22 -9 13 5 12 10 -1 36 -12 22 -19 27 -27 19
-14 -14 -81 -15 -72 -1 9 15 -31 12 -42 -2 -14 -19 -34 -108 -27 -119 3 -5 24
9 46 31 22 23 42 40 44 37 3 -2 -12 -29 -31 -58 -50 -74 -138 -258 -170 -353
-25 -75 -44 -120 -45 -104 0 4 8 31 19 60 35 98 79 243 86 279 6 30 4 37 -12
41 -31 8 -44 -2 -67 -53 l-23 -48 -6 252 c-5 207 -11 288 -36 452 -42 279
-116 720 -146 871 -14 69 -25 132 -25 139 0 8 51 -9 148 -51 481 -210 1013
-488 1122 -585 25 -22 46 -35 48 -30 5 15 -120 268 -237 481 -56 102 -107 205
-113 230 -30 133 -79 260 -168 435 -290 570 -496 961 -717 1365 -185 336 -211
379 -461 755 -246 370 -241 355 -98 312 44 -13 104 -30 131 -37 100 -24 150
-43 173 -64 32 -29 61 -88 115 -236 67 -186 94 -240 121 -240 18 0 18 111 1
263 -9 78 -19 145 -21 149 -10 16 16 15 81 -3 81 -22 197 -47 275 -59 229 -35
339 -54 429 -76 57 -13 106 -22 109 -19 3 2 -2 23 -11 46 -16 40 -16 41 2 25
22 -20 31 -12 31 30 0 20 6 37 16 42 13 7 14 13 6 29 -6 11 -13 33 -16 48 -6
35 -32 60 -68 69 -29 7 -40 -10 -14 -20 8 -3 20 -19 26 -35 7 -16 16 -27 20
-24 9 6 23 -25 15 -34 -3 -3 -9 -1 -13 4 -6 8 -67 58 -119 98 -25 19 -13 -19
15 -49 29 -30 63 -85 75 -119 4 -11 -145 134 -331 321 -185 188 -391 393 -457
455 -149 140 -257 260 -289 319 -13 25 -69 205 -125 400 -112 395 -191 642
-306 955 -81 221 -145 429 -145 472 0 29 36 93 52 93 6 0 17 -8 25 -17z m-457
-210 c12 -32 44 -121 72 -198 28 -77 84 -212 125 -300 101 -215 128 -279 178
-420 24 -66 57 -150 74 -187 16 -38 29 -68 27 -68 -2 0 -16 19 -31 42 -36 54
-78 95 -82 81 -2 -6 -13 -9 -23 -6 -12 3 -20 0 -20 -6 0 -20 41 -94 69 -126
14 -16 -82 78 -214 210 -281 279 -455 439 -533 492 -32 20 -124 104 -206 185
-82 81 -153 148 -157 148 -5 0 -9 5 -9 10 0 6 16 10 37 10 26 0 510 140 638
185 26 9 34 1 55 -52z m-5192 -1426 c28 -45 120 -217 205 -382 85 -165 169
-325 187 -355 19 -30 149 -283 291 -562 312 -613 427 -824 443 -808 7 7 13 92
18 228 4 119 14 276 23 347 8 72 18 209 21 305 3 96 9 188 13 204 8 32 -3 48
161 -229 111 -188 138 -230 240 -370 153 -209 407 -694 509 -970 38 -103 105
-253 170 -380 59 -115 133 -268 166 -340 76 -169 228 -459 267 -507 48 -61 58
-52 58 50 0 48 9 206 20 352 11 146 20 322 20 393 0 73 4 127 9 127 6 0 30
-28 54 -62 55 -77 372 -585 452 -723 94 -163 299 -581 343 -700 49 -132 129
-345 222 -590 38 -99 96 -284 130 -410 165 -616 192 -697 219 -648 11 22 35
238 51 468 6 83 15 195 21 250 5 55 14 188 19 295 15 293 41 640 51 683 11 44
60 84 154 127 222 102 544 70 697 -68 93 -84 220 -271 285 -417 66 -152 93
-340 93 -665 0 -294 -28 -527 -80 -667 -49 -131 -201 -395 -286 -497 -57 -69
-99 -94 -410 -251 -211 -106 -298 -145 -324 -145 -30 0 -42 -7 -71 -42 -60
-72 -89 -122 -118 -205 -35 -96 -110 -248 -195 -391 -35 -59 -96 -168 -136
-242 -80 -148 -188 -323 -277 -448 -146 -204 -680 -754 -901 -929 -41 -32
-129 -90 -196 -129 -116 -67 -339 -236 -541 -410 -92 -79 -119 -97 -345 -227
-91 -52 -204 -117 -252 -145 -144 -84 -664 -347 -805 -407 -73 -31 -217 -85
-320 -121 -103 -36 -229 -81 -280 -100 -89 -33 -537 -166 -733 -217 -325 -85
-733 -165 -980 -192 -329 -36 -1032 4 -1404 80 -203 41 -448 129 -566 203 -60
38 -249 221 -298 291 -49 67 -139 359 -246 791 -52 212 -100 418 -106 458 -15
90 -55 155 -231 367 -422 511 -611 769 -825 1123 -151 251 -189 328 -279 568
-61 162 -116 283 -199 439 -145 273 -164 327 -239 690 l-52 250 1 205 c1 113
7 275 13 360 13 162 89 792 117 965 17 107 102 516 108 522 4 4 10 -58 31
-312 27 -321 64 -570 136 -933 39 -196 76 -366 82 -377 10 -19 11 -18 18 10 4
17 14 94 23 172 26 219 81 417 234 838 97 266 342 818 522 1175 71 140 207
412 302 604 157 318 278 541 488 898 41 70 79 127 84 128 5 0 6 -21 2 -47 -13
-99 -26 -350 -21 -403 3 -30 10 -172 15 -315 6 -143 20 -354 31 -470 20 -207
66 -565 74 -573 4 -5 97 136 315 477 79 123 182 276 229 340 120 163 219 310
284 422 71 122 142 219 273 380 96 117 128 149 241 240 23 19 147 153 275 299
290 330 582 630 638 655 22 10 42 16 44 14 2 -2 -3 -53 -11 -114 -12 -90 -13
-220 -8 -715 6 -583 9 -650 24 -650 4 0 58 75 119 168 61 92 142 203 181 247
39 44 163 216 275 382 113 166 238 348 278 405 107 150 150 221 217 359 33 68
80 153 104 189 83 125 260 385 269 397 15 18 22 11 76 -80z m11073 -6832 c31
-321 55 -491 99 -712 111 -559 215 -866 452 -1338 126 -253 164 -313 258 -410
84 -88 309 -339 379 -424 29 -35 85 -114 126 -175 40 -62 80 -118 89 -125 9
-8 16 -23 16 -35 0 -11 -34 -90 -75 -173 -94 -195 -127 -231 -345 -375 -309
-205 -381 -228 -690 -231 -113 -1 -230 2 -261 6 l-57 8 -20 132 c-45 284 -54
383 -41 483 10 80 9 99 -5 142 -10 28 -24 56 -31 62 -11 9 -12 17 -4 31 8 16
6 19 -12 19 -14 0 -19 -5 -16 -14 5 -13 1 -13 -34 -1 -70 25 -139 64 -253 142
-147 101 -502 363 -594 438 -98 80 -122 95 -155 95 -24 0 -31 7 -50 49 -17 38
-90 121 -303 343 -412 429 -545 583 -647 748 -48 79 -259 504 -256 517 1 5 63
24 138 44 126 34 216 60 381 111 36 11 135 40 220 64 400 115 564 171 718 247
113 56 176 103 320 235 74 68 187 166 251 217 64 51 172 143 241 204 l125 111
8 -113 c4 -61 16 -206 28 -322z m-5386 323 c26 -46 84 -128 128 -183 145 -180
237 -339 237 -410 0 -60 -26 -177 -124 -570 -89 -354 -129 -490 -265 -913 -97
-303 -207 -736 -256 -1008 -48 -268 -60 -309 -100 -339 -69 -54 -253 -122
-468 -174 -158 -39 -335 -53 -547 -43 l-165 7 -7 60 c-34 282 -37 1423 -5
1512 9 22 51 103 95 180 201 351 340 628 401 798 l37 104 34 -67 c49 -94 237
-376 304 -454 30 -36 52 -69 48 -73 -4 -5 -1 -4 7 0 10 6 13 4 9 -6 -5 -12 0
-14 22 -11 l27 4 6 101 c6 113 29 238 88 462 21 83 58 236 83 340 79 341 93
374 249 589 31 43 69 100 85 127 15 27 28 49 28 49 1 0 23 -37 49 -82z m1040
-1308 c187 -6 536 -13 776 -16 l437 -6 -33 -67 c-54 -108 -205 -535 -240 -676
-18 -71 -43 -196 -55 -277 -13 -82 -28 -148 -32 -148 -14 0 -8 -30 7 -36 23
-9 18 -27 -15 -49 -24 -16 -30 -27 -31 -60 -1 -22 -1 -43 -1 -46 7 -61 13 -93
20 -102 5 -7 12 -24 16 -39 3 -16 13 -28 20 -28 8 0 17 -13 21 -30 4 -19 12
-29 23 -28 37 3 48 -3 61 -34 8 -21 15 -28 18 -19 4 9 8 10 12 2 13 -20 73 54
81 101 5 24 22 73 38 108 64 138 68 209 20 287 -19 30 -40 53 -50 53 -11 0
-15 5 -12 14 4 9 -3 16 -18 18 -17 3 -33 -7 -60 -36 -21 -23 -38 -46 -38 -52
0 -18 -24 -34 -39 -25 -10 6 -3 26 30 82 45 79 58 103 207 384 52 99 120 223
151 275 31 52 60 105 66 118 8 18 10 1 9 -70 -7 -580 -4 -1497 5 -1658 13
-206 41 -452 67 -585 23 -117 151 -610 164 -636 7 -11 8 -25 3 -29 -10 -10
-279 -78 -450 -114 -140 -30 -472 -76 -541 -76 -51 0 -119 16 -140 32 -10 9
-9 14 3 29 13 13 15 28 10 62 -7 43 -9 45 -30 37 -22 -9 -24 -6 -31 37 -4 25
-4 72 0 105 7 70 3 79 -66 150 -161 165 -372 477 -512 757 -54 107 -181 392
-234 526 -143 359 -241 757 -227 925 28 348 56 593 86 750 11 58 21 110 24
116 2 8 23 7 72 -3 42 -8 199 -17 408 -23z m919 -1215 c-4 -8 -8 -15 -10 -15
-2 0 -4 7 -4 15 0 8 4 15 10 15 5 0 7 -7 4 -15z m-2374 -1226 c0 -61 -42 -274
-57 -291 -9 -10 -63 -36 -122 -59 -333 -131 -562 -178 -785 -164 -128 8 -132
9 -140 39 -5 20 -56 418 -56 438 0 14 77 9 203 -14 96 -18 159 -22 297 -22
188 0 284 13 520 73 146 37 140 37 140 0z m-85 -669 c10 -16 6 -556 -6 -680
-17 -187 -52 -305 -113 -377 -53 -63 -174 -61 -286 4 -167 98 -365 410 -504
794 -41 112 -77 212 -81 222 -9 22 -2 22 140 1 170 -25 559 -15 710 19 132 30
132 30 140 17z m-5445 -364 c0 -27 -42 -152 -68 -199 -46 -86 -53 -88 -380
-103 -157 -8 -361 -21 -452 -29 -91 -8 -210 -16 -265 -18 l-100 -2 -3 33 c-4
37 10 45 98 56 125 16 529 99 665 137 39 10 76 19 83 19 17 0 15 -18 -3 -22
-12 -2 -10 -6 7 -17 13 -7 20 -10 16 -6 -5 5 2 15 13 23 16 11 18 17 9 22 -8
5 9 15 46 25 32 10 113 35 179 56 132 42 155 46 155 25z m-167 -526 c-9 -56
-54 -206 -66 -217 -17 -18 -52 -26 -237 -57 -271 -46 -801 -108 -814 -95 -3 3
-7 84 -8 179 l-3 175 50 8 c109 17 307 24 685 23 345 -1 395 -3 393 -16z
m-270 -516 c70 -6 77 -8 77 -28 0 -58 -170 -510 -252 -669 -82 -160 -235 -348
-272 -334 -22 9 -96 107 -154 204 -53 88 -111 252 -172 483 -43 164 -70 331
-56 349 9 12 70 13 381 7 203 -3 405 -9 448 -12z"/>
<path d="M16936 17665 c6 -16 43 -40 50 -33 2 2 -3 14 -12 26 -17 25 -47 30
-38 7z"/>
<path d="M17380 16504 c0 -45 24 -42 28 4 2 24 -1 32 -12 32 -12 0 -16 -10
-16 -36z"/>
<path d="M17455 16431 c-8 -36 7 -67 34 -74 37 -9 45 17 19 62 -27 48 -44 52
-53 12z"/>
<path d="M17542 16324 c4 -21 22 -23 26 -1 2 10 -3 17 -13 17 -10 0 -15 -6
-13 -16z"/>
<path d="M17996 15767 c3 -10 9 -15 12 -12 3 3 0 11 -7 18 -10 9 -11 8 -5 -6z"/>
<path d="M16600 15634 c0 -3 8 -18 18 -32 10 -15 27 -45 37 -67 9 -22 24 -48
32 -57 8 -9 25 -36 38 -59 12 -24 37 -54 54 -68 29 -22 31 -22 31 -5 0 11 -11
41 -25 67 -14 26 -23 53 -19 59 4 6 3 8 -3 5 -8 -5 -83 81 -83 96 0 10 -58 67
-69 67 -6 0 -11 -3 -11 -6z"/>
<path d="M16870 15221 c0 -16 50 -94 57 -88 2 3 2 14 -1 24 -8 24 -56 79 -56
64z"/>
<path d="M17334 15167 c4 -23 13 -47 21 -53 8 -6 15 -16 15 -23 0 -6 5 -11 10
-11 6 0 10 -8 10 -17 0 -14 3 -13 16 5 8 12 20 20 25 17 5 -4 9 -2 9 4 0 5 -8
11 -17 13 -15 3 -15 4 1 21 17 16 16 17 -4 17 -12 0 -19 4 -15 10 3 5 3 20 -1
34 -5 20 -12 24 -41 24 l-35 0 6 -41z"/>
<path d="M17103 15118 c3 -18 19 -71 37 -118 17 -47 38 -103 46 -125 8 -22 22
-55 30 -74 25 -52 189 -260 198 -250 3 2 -7 37 -20 77 -24 68 -24 74 -9 86 22
16 11 57 -26 97 -15 16 -31 39 -34 50 -10 30 -55 79 -73 79 -10 0 -25 17 -34
38 -10 20 -29 52 -43 71 -14 19 -25 44 -25 55 0 25 -17 46 -38 46 -10 0 -13
-9 -9 -32z"/>
<path d="M17551 15113 c-1 -7 -12 -13 -26 -13 -18 0 -23 -4 -18 -16 3 -9 0
-20 -7 -24 -7 -5 1 -9 24 -12 28 -3 36 -1 36 12 0 10 10 22 23 28 l22 11 -22
0 c-12 1 -24 7 -26 14 -4 10 -6 10 -6 0z m-4 -49 c-3 -3 -12 -4 -19 -1 -8 3
-5 6 6 6 11 1 17 -2 13 -5z"/>
<path d="M19088 14843 c-13 -16 -12 -84 1 -93 4 -3 29 -52 56 -110 61 -132 73
-150 97 -150 11 0 22 -9 25 -20 3 -11 8 -20 12 -20 4 0 14 9 24 20 11 14 29
20 56 20 22 0 43 5 46 10 9 15 35 12 35 -4 0 -20 19 -24 47 -12 26 13 30 38 8
56 -8 7 -15 17 -15 22 0 5 -16 24 -35 41 -19 17 -35 35 -35 41 0 17 -169 173
-198 184 -69 24 -112 29 -124 15z"/>
<path d="M18276 14735 c-9 -9 -17 -11 -21 -5 -15 25 -22 9 -52 -110 -3 -14
-14 -36 -24 -49 -19 -24 -25 -87 -11 -106 19 -26 68 -41 107 -34 42 7 59 4 50
-11 -3 -5 1 -15 9 -23 8 -8 18 -26 21 -40 5 -17 17 -27 38 -34 18 -5 32 -14
32 -20 0 -19 12 -25 34 -18 24 7 28 25 7 25 -24 0 -27 29 -5 41 16 8 19 17 14
37 -4 15 -13 31 -21 35 -9 5 -12 16 -9 27 6 19 -30 90 -46 90 -5 0 -9 9 -9 19
0 11 -4 23 -10 26 -5 3 -10 26 -10 50 0 25 -6 48 -13 52 -7 4 -20 20 -30 36
-20 31 -29 33 -51 12z m64 -266 c-7 -11 -14 -18 -17 -15 -3 3 0 12 7 21 18 21
23 19 10 -6z"/>
<path d="M17467 14643 c-9 -9 -9 -63 1 -63 4 0 15 7 25 14 16 12 16 17 5 35
-14 22 -20 25 -31 14z"/>
<path d="M18003 14505 c-16 -17 -4 -26 31 -23 30 3 36 18 7 18 -11 0 -21 4
-23 9 -1 5 -9 3 -15 -4z"/>
<path d="M17547 14493 c-10 -9 -8 -71 2 -91 5 -9 22 -47 37 -84 27 -65 30 -68
62 -68 28 0 33 3 27 18 -3 9 -9 29 -12 45 -3 15 -10 30 -14 33 -5 3 -9 22 -9
43 0 20 -5 42 -12 49 -7 7 -9 12 -5 12 4 0 -3 11 -15 25 -21 24 -48 32 -61 18z"/>
<path d="M19787 14273 c-4 -3 -7 -20 -7 -36 0 -20 6 -30 19 -34 13 -3 17 -11
13 -25 -5 -19 -2 -20 26 -15 17 4 34 2 37 -3 3 -6 1 -10 -4 -10 -22 0 -10 -18
19 -29 26 -9 30 -8 30 9 0 10 4 22 10 25 10 6 -7 38 -40 78 -28 34 -87 57
-103 40z"/>
<path d="M19296 14261 c-4 -5 -2 -20 3 -33 7 -16 10 -18 10 -6 1 9 4 23 7 32
6 17 -11 23 -20 7z"/>
<path d="M19292 14181 c-12 -7 -5 -81 8 -81 15 0 31 28 20 35 -6 4 -8 15 -5
25 7 21 -5 32 -23 21z"/>
<path d="M19421 14149 c-5 -13 -7 -27 -4 -31 2 -5 -1 -8 -6 -8 -6 0 -11 -10
-11 -23 0 -23 -25 -67 -38 -67 -4 0 -13 14 -19 31 -22 58 -49 11 -28 -50 7
-19 67 -6 111 24 20 14 40 22 44 20 5 -3 11 -1 15 5 3 6 -2 14 -12 18 -13 5
-18 18 -19 45 -2 50 -20 70 -33 36z"/>
<path d="M17717 14100 c-8 -32 4 -42 24 -19 10 12 19 26 19 30 0 14 -39 5 -43
-11z"/>
<path d="M19906 14085 c4 -8 10 -12 15 -9 14 8 10 24 -6 24 -9 0 -12 -6 -9
-15z"/>
<path d="M17816 14034 c-3 -9 -9 -39 -12 -68 -5 -41 -3 -56 10 -68 9 -9 16
-21 16 -27 0 -19 15 -12 48 22 34 35 44 87 17 87 -8 0 -15 8 -15 18 0 18 -32
52 -49 52 -5 0 -12 -7 -15 -16z"/>
<path d="M19629 14019 c-15 -9 -14 -11 23 -27 27 -11 45 -2 34 17 -9 13 -42
20 -57 10z"/>
<path d="M17916 13828 c-17 -19 -17 -22 -2 -30 9 -5 16 -21 16 -37 0 -15 6
-36 14 -46 13 -18 14 -18 20 2 18 56 16 90 -7 111 l-23 22 -18 -22z"/>
<path d="M18213 13228 c-39 -61 -44 -123 -22 -242 14 -73 17 -94 18 -124 1
-12 10 -30 21 -39 11 -10 20 -25 20 -34 0 -40 162 -194 198 -187 30 6 47 57
44 133 -6 191 -4 235 10 235 6 0 3 9 -8 21 -21 23 -24 18 52 78 22 17 41 71
25 71 -5 0 -12 -6 -14 -12 -7 -18 -29 12 -22 30 3 7 -3 16 -13 19 -9 3 -24 12
-32 19 -8 7 -18 13 -22 14 -41 5 -68 14 -68 24 0 7 -3 7 -8 1 -4 -5 -16 -11
-27 -12 -11 -1 -38 -5 -61 -8 -30 -5 -44 -2 -53 9 -16 19 -27 20 -38 4z"/>
<path d="M21436 12479 c-10 -53 -7 -80 14 -106 11 -14 20 -33 20 -42 0 -30 21
-92 29 -86 5 2 16 -4 25 -14 20 -22 55 -17 57 8 3 44 -5 78 -32 139 -26 58
-82 132 -100 132 -4 0 -9 -14 -13 -31z"/>
<path d="M20696 10551 c-5 -7 -15 -10 -23 -6 -9 3 -23 -1 -32 -8 -9 -8 -38
-22 -64 -31 -35 -13 -59 -32 -90 -71 -23 -30 -47 -54 -53 -54 -6 -1 -17 -7
-23 -15 -6 -7 -22 -11 -36 -8 -14 2 -31 0 -38 -6 -6 -5 -26 -13 -43 -16 -62
-13 -118 -90 -82 -113 32 -19 139 22 178 67 8 10 34 21 58 24 113 15 193 50
254 113 42 42 47 53 46 91 0 29 -5 42 -14 42 -8 0 -14 -8 -15 -17 0 -16 -1
-16 -8 1 -6 14 -10 16 -15 7z"/>
<path d="M17534 10273 c-42 -66 -54 -101 -54 -160 0 -49 28 -83 70 -83 33 0
114 27 157 53 28 16 33 25 33 58 0 31 -4 39 -18 39 -9 0 -32 16 -49 35 -18 19
-37 35 -43 35 -18 0 -40 27 -40 49 0 40 -20 31 -56 -26z"/>
<path d="M19139 10196 c0 -1 -2 -9 -4 -19 -6 -33 -14 -47 -27 -47 -9 0 -9 3 2
10 13 9 13 11 0 20 -40 26 -82 -9 -44 -37 18 -13 18 -15 2 -24 -9 -5 -35 -28
-58 -52 -34 -35 -40 -48 -38 -77 4 -49 34 -63 118 -54 68 6 259 74 295 104 11
9 39 17 64 18 24 1 51 8 60 17 10 8 27 15 38 15 19 0 70 32 85 54 11 16 -3 38
-17 26 -16 -13 -36 -10 -51 9 -7 9 -17 12 -30 6 -10 -4 -23 -9 -29 -9 -18 -2
-41 -21 -48 -39 -4 -9 -20 -20 -37 -23 -16 -4 -30 -12 -30 -19 0 -8 -9 -10
-25 -7 -14 2 -25 7 -25 11 0 4 -15 12 -34 19 -40 15 -63 39 -68 72 -3 23 -8
25 -50 26 -27 0 -48 0 -49 0z"/>
<path d="M15643 18124 c-37 -16 11 -107 84 -157 22 -15 46 -38 53 -51 15 -30
57 -40 63 -17 16 64 -15 157 -67 196 -35 27 -105 42 -133 29z"/>
<path d="M15706 17795 c4 -8 13 -15 21 -15 13 0 13 3 3 15 -7 8 -16 15 -21 15
-5 0 -6 -7 -3 -15z"/>
<path d="M15996 17697 c-21 -55 -20 -69 4 -90 25 -21 79 -18 101 6 9 9 21 17
28 17 17 0 13 25 -9 51 -18 21 -19 22 -15 4 5 -19 5 -19 -5 1 -11 20 -59 54
-78 54 -5 0 -17 -19 -26 -43z"/>
<path d="M9740 13671 c-74 -24 -285 -113 -380 -161 -223 -112 -442 -313 -505
-463 -28 -66 -13 -147 26 -147 23 0 68 33 124 90 60 62 294 242 454 350 47 32
151 92 231 134 188 100 224 138 184 194 -19 27 -57 28 -134 3z"/>
<path d="M12595 12706 c-199 -29 -561 -152 -850 -290 -133 -64 -377 -205 -500
-291 -159 -110 -388 -299 -477 -393 -107 -113 -276 -337 -380 -504 -60 -96
-83 -143 -103 -215 -15 -50 -25 -108 -23 -128 l3 -38 83 62 c46 34 85 61 87
59 2 -2 28 -124 57 -273 55 -270 75 -338 106 -350 30 -11 39 22 46 173 4 81
14 206 22 277 8 72 18 187 22 255 6 85 14 137 26 162 39 81 298 299 631 530
284 197 741 447 1011 553 110 43 333 115 356 115 12 0 158 -91 386 -242 225
-148 573 -450 669 -580 19 -27 41 -48 48 -48 18 0 45 39 45 65 0 58 -370 535
-575 741 -153 153 -356 327 -407 349 -50 20 -182 26 -283 11z"/>
<path d="M6218 12160 c-183 -17 -277 -49 -298 -101 -11 -25 -10 -32 4 -48 29
-32 95 -41 297 -41 107 0 235 -4 286 -9 51 -5 101 -7 113 -4 47 12 8 71 -97
144 -82 57 -161 72 -305 59z"/>
<path d="M15456 12109 c-14 -11 -41 -53 -60 -92 -99 -207 -146 -469 -96 -528
20 -24 20 -24 35 -5 8 11 15 37 15 58 0 59 27 167 58 228 34 67 72 94 160 114
109 25 197 0 343 -94 64 -41 79 -43 79 -8 0 45 -268 281 -375 329 -55 25 -125
25 -159 -2z"/>
<path d="M12315 11906 c-38 -8 -94 -23 -124 -35 -256 -103 -489 -433 -531
-753 -25 -193 -5 -346 96 -743 19 -79 161 -365 218 -443 25 -34 92 -115 150
-180 88 -101 123 -132 225 -201 180 -122 319 -181 426 -181 56 0 216 27 303
51 168 45 517 206 586 269 41 38 135 177 181 270 24 47 90 242 105 310 17 77
11 135 -14 135 -14 0 -36 -27 -76 -93 -63 -104 -106 -154 -114 -131 -3 8 -14
88 -26 179 -22 176 -51 280 -131 467 -61 145 -191 397 -251 488 -105 160 -419
444 -581 526 -119 61 -316 89 -442 65z m-46 -1496 c43 -21 87 -54 136 -103 94
-93 104 -126 82 -244 -24 -123 -47 -170 -99 -193 -52 -24 -86 -25 -115 -5 -30
21 -111 126 -167 217 -26 43 -70 105 -97 138 -81 96 -81 132 -3 181 79 48 173
51 263 9z"/>
<path d="M6175 10053 c-212 -30 -553 -148 -623 -216 -64 -62 -62 -115 14 -353
111 -350 276 -660 479 -897 76 -89 97 -104 116 -81 11 14 9 25 -18 73 -77 140
-242 564 -288 741 -22 85 -45 243 -36 252 9 10 196 52 357 80 118 21 156 23
453 21 178 -1 325 -4 328 -7 3 -3 -4 -17 -15 -33 -46 -65 -56 -119 -56 -288 0
-193 12 -263 90 -495 95 -283 166 -431 320 -666 81 -124 281 -353 404 -465 44
-40 79 -77 77 -83 -12 -36 -338 -52 -547 -27 -165 19 -208 30 -323 79 -81 34
-111 42 -119 34 -19 -19 22 -53 162 -136 149 -89 200 -112 333 -155 111 -35
180 -39 265 -15 83 23 213 89 256 129 32 29 37 39 31 64 l-6 29 76 4 c91 4 94
7 132 123 24 72 27 95 27 225 0 129 -4 160 -32 278 -56 235 -119 439 -194 627
-22 55 -67 179 -100 275 -103 303 -171 417 -321 535 -147 117 -298 182 -617
264 -272 71 -501 101 -625 84z m1148 -1255 c34 -59 111 -240 132 -313 9 -33
18 -85 18 -115 1 -65 -12 -140 -24 -140 -49 0 -250 350 -265 461 -6 42 -4 47
41 97 26 28 53 52 60 52 7 0 24 -19 38 -42z"/>
<path d="M11270 7160 c-203 -20 -379 -104 -466 -223 -53 -71 -72 -127 -56
-161 13 -30 97 -70 180 -87 120 -23 409 3 544 50 123 42 228 138 228 207 0 63
-118 181 -204 203 -62 15 -142 19 -226 11z m247 -176 c15 -12 29 -28 31 -37
10 -50 -314 -133 -487 -126 -103 5 -113 15 -67 66 78 87 193 124 378 120 101
-2 120 -5 145 -23z"/>
<path d="M21504 10022 c-22 -14 -45 -84 -38 -119 8 -40 13 -41 47 -5 31 33 44
81 28 111 -12 22 -19 25 -37 13z"/>
<path d="M19911 8956 c-1 -13 -7 -17 -21 -13 -20 5 -32 -6 -37 -33 -3 -20 17
-80 27 -80 4 0 15 -16 24 -35 9 -19 21 -35 26 -35 6 0 19 -9 30 -20 12 -12 25
-18 30 -15 17 10 11 55 -10 77 -12 13 -20 36 -20 57 0 22 -3 31 -8 23 -10 -16
-29 19 -35 63 -2 17 -5 22 -6 11z m30 -139 c-10 -9 -11 -8 -5 6 3 10 9 15 12
12 3 -3 0 -11 -7 -18z"/>
<path d="M20273 8455 c7 -42 28 -70 69 -91 20 -11 29 -11 34 -2 4 6 2 14 -4
16 -7 2 -12 10 -12 17 0 8 -9 17 -21 20 -12 4 -18 12 -15 21 3 8 1 14 -4 14
-6 0 -20 10 -32 22 l-21 21 6 -38z"/>
<path d="M20410 8331 c0 -20 13 -41 21 -35 10 6 16 -7 23 -53 4 -30 54 -88 66
-77 2 3 -2 9 -9 13 -7 5 -10 14 -7 20 10 16 -10 71 -37 102 -24 27 -57 44 -57
30z"/>
<path d="M20845 7819 c-4 -5 0 -18 9 -28 9 -10 16 -24 16 -33 0 -22 216 -191
270 -212 53 -20 99 -50 201 -128 56 -42 85 -58 120 -63 56 -8 72 7 67 62 -4
47 -65 142 -95 149 -12 3 -35 26 -50 49 -15 24 -38 48 -50 54 -13 6 -23 15
-23 21 0 5 -11 10 -24 10 -13 0 -29 7 -36 15 -7 8 -16 13 -20 10 -4 -3 -19 4
-34 16 -14 11 -34 22 -45 24 -11 2 -28 8 -39 14 -10 5 -27 10 -38 11 -10 0
-50 2 -89 4 -46 3 -72 0 -77 -7 -5 -8 -8 -4 -8 9 0 29 -41 46 -55 23z"/>
<path d="M22781 6924 c-26 -33 -27 -68 -3 -114 23 -47 42 -44 58 10 32 106 -3
170 -55 104z"/>
<path d="M21886 6603 c-33 -51 -45 -97 -46 -170 0 -60 13 -100 42 -127 21 -19
21 -19 62 2 23 12 52 22 66 22 39 0 156 35 187 56 15 10 32 19 38 19 17 0 17
33 0 47 -23 19 -34 30 -50 53 -14 19 -14 19 -15 -10 0 -23 -3 -27 -10 -15 -6
10 -10 11 -10 3 0 -22 -29 -14 -45 11 -9 13 -17 34 -18 45 -1 12 -5 21 -10 21
-16 0 -37 29 -39 54 -2 20 -8 26 -28 27 -14 1 -41 3 -60 4 -31 2 -38 -3 -64
-42z"/>
<path d="M22320 6481 c-7 -11 -18 -19 -23 -18 -5 1 -11 -3 -14 -9 -6 -18 29
-22 64 -8 24 10 30 18 26 34 -7 25 -34 26 -53 1z"/>
<path d="M21810 6184 c0 -11 4 -25 9 -32 6 -11 9 -9 14 7 3 11 -1 25 -9 32
-11 9 -14 8 -14 -7z"/>
<path d="M16323 10010 c-12 -5 -30 -21 -39 -36 -20 -30 -43 -130 -44 -188 0
-21 -14 -87 -31 -145 -20 -66 -32 -133 -34 -177 -1 -57 -6 -76 -23 -94 -41
-44 -64 -151 -67 -315 -2 -83 -8 -162 -13 -175 -12 -31 -5 -51 14 -43 10 4 17
-2 21 -16 7 -28 30 -27 36 2 4 21 4 21 6 -3 1 -19 11 -6 43 55 22 44 51 94 64
110 34 45 71 162 73 228 1 56 18 104 46 137 7 8 18 35 25 60 7 25 15 50 19 55
15 20 41 101 46 144 3 24 10 51 15 61 15 28 12 114 -7 193 -14 57 -25 79 -58
114 -43 44 -54 48 -92 33z"/>
<path d="M16010 8471 c-11 -28 -10 -34 5 -51 23 -26 42 -25 50 1 5 15 2 25 -9
31 -10 5 -21 19 -25 30 -7 19 -9 18 -21 -11z"/>
<path d="M15643 7625 c-40 -17 -47 -41 -41 -153 4 -76 9 -98 44 -172 37 -78
97 -150 124 -150 6 0 10 -7 10 -15 0 -11 11 -15 38 -15 28 0 44 7 65 30 16 17
32 30 37 30 4 0 18 21 31 46 16 34 23 71 27 138 10 202 -50 276 -225 276 -44
-1 -92 -7 -110 -15z"/>
<path d="M17178 8748 c-41 -30 -59 -50 -64 -72 -3 -17 -10 -36 -15 -42 -5 -6
-13 -42 -19 -81 -8 -60 -6 -87 10 -165 23 -110 25 -147 7 -173 -8 -11 -22 -41
-32 -68 -15 -40 -21 -46 -38 -41 -17 5 -19 3 -14 -17 4 -13 7 -28 7 -32 0 -5
5 -5 10 -2 6 3 10 3 11 -2 0 -4 2 -17 4 -28 1 -11 5 -47 8 -80 12 -131 17
-145 48 -145 15 0 31 -4 34 -10 3 -5 10 -10 15 -10 11 0 70 87 70 104 0 7 6
21 14 31 8 11 11 26 8 35 -6 16 -50 59 -77 75 -16 10 -16 15 4 79 15 48 19 82
15 115 -4 38 -2 52 12 66 10 10 19 23 20 30 1 7 14 30 29 53 19 28 26 53 26
84 0 60 -8 120 -21 152 -5 15 -10 41 -10 57 0 25 5 30 30 36 17 3 30 12 30 20
0 13 -3 13 -15 3 -12 -10 -16 -8 -25 15 -5 14 -10 33 -10 41 0 22 -11 17 -72
-28z"/>
<path d="M17267 7995 c-4 -8 -2 -17 3 -20 6 -4 10 3 10 14 0 25 -6 27 -13 6z"/>
<path d="M17583 6950 c-17 -26 -16 -48 1 -65 12 -12 14 -12 18 3 2 9 1 32 -2
50 -5 31 -6 32 -17 12z"/>
<path d="M17891 6391 l-22 -17 50 -54 c28 -30 51 -56 51 -59 0 -3 8 -14 18
-25 19 -22 36 -61 46 -109 4 -15 23 -44 42 -65 20 -20 44 -54 55 -74 23 -45
28 -48 103 -64 57 -12 62 -11 81 6 24 25 48 101 35 114 -6 6 -25 15 -42 21
-18 5 -34 17 -34 25 -1 8 -2 21 -3 28 0 7 -16 20 -35 29 -19 9 -37 26 -40 37
-3 13 -19 27 -38 34 -18 7 -42 27 -53 45 -17 27 -28 33 -69 38 -30 3 -52 11
-57 22 -5 9 -15 22 -22 29 -7 7 -20 23 -28 35 -14 20 -16 21 -38 4z"/>
<path d="M18607 6209 c-14 -8 -15 -14 -6 -31 6 -11 9 -32 6 -46 -6 -30 1 -54
14 -46 5 3 12 -2 15 -10 10 -25 20 -19 31 18 8 27 7 41 -8 74 -23 48 -29 53
-52 41z"/>
</g>
</svg>
